<!-- sample rectangle -->
<svg xmlns="http://www.w3.org/2000/svg" xmlnsXlink="http://www.w3.org/1999/xlink" width="24" height="24" viewBox="0 0 24 24">
            	<defs>
            		<clipPath id="clipPath1355805773">
            			<path d="M0 0L24 0L24 24L0 24L0 0Z" fill-rule="nonzero" transform="matrix(1 0 0 1 0 0)"/>
            		</clipPath>
            	</defs>
            	<g clip-path="url(#clipPath1355805773)">
            		<path d="M0.0251263 0.0251263Q-1 1.05025 -1 2.5C-1 3.05228 -0.55228 3.5 0 3.5C0.55228 3.5 1 3.05228 1 2.5Q1 1.87868 1.43934 1.43934Q1.87868 1 2.5 1L16 1C16.5523 1 17 0.55228 17 0C17 -0.55228 16.5523 -1 16 -1L2.5 -1Q1.05025 -1 0.0251263 0.0251263Z" fill-rule="evenodd" transform="matrix(1 0 0 1 4 17)" fill="rgb(37, 99, 235)"/>
            		<path d="M2.5 -1L16 -1Q16.0985 -1 16.1951 -0.980785Q16.2917 -0.96157 16.3827 -0.923879Q16.4737 -0.886188 16.5556 -0.83147Q16.6375 -0.776751 16.7071 -0.707107Q16.7767 -0.637463 16.8315 -0.55557Q16.8862 -0.473678 16.9239 -0.382683Q16.9616 -0.291689 16.9808 -0.19509Q17 -0.0984914 17 0L17 20Q17 20.0985 16.9808 20.1951Q16.9616 20.2917 16.9239 20.3827Q16.8862 20.4737 16.8315 20.5556Q16.7767 20.6375 16.7071 20.7071Q16.6375 20.7767 16.5556 20.8315Q16.4737 20.8862 16.3827 20.9239Q16.2917 20.9616 16.1951 20.9808Q16.0985 21 16 21L2.5 21Q1.05025 21 0.0251263 19.9749Q-1 18.9497 -1 17.5L-1 2.5Q-1 1.05025 0.0251263 0.0251263Q1.05025 -1 2.5 -1ZM2.5 1Q1.87868 1 1.43934 1.43934Q1 1.87868 1 2.5L1 17.5Q1 18.1213 1.43934 18.5607Q1.87868 19 2.5 19L16 19L16 20L15 20L15 0L16 0L16 1L2.5 1Z" fill-rule="nonzero" transform="matrix(1 0 0 1 4 2)" fill="rgb(37, 99, 235)"/>
            	</g>
            </svg>
